<svg class="indicator" viewBox="0 0 22 22" width="22" height="22"
    xmlns="http://www.w3.org/2000/svg">
    <path d="m11 0a7.44506 7.44506 0 0 0 -7.5 7.2875c0 1.65 1.132 4.2625 3.25477 8.1125 1.55652 2.75 4.24523 6.6 4.24523 6.6s2.68865-3.9875 4.24528-6.7375c2.12272-3.85 3.25472-6.4625 3.25472-8.1125a7.4215 7.4215 0 0 0 -7.5-7.15z" fill="#fff"/>
    <path d="m11 1.01715a6.46476 6.46476 0 0 0 -6.48285 6.27033c0 1.72619 1.67181 4.97973 3.12836 7.62139.97564 1.7237 2.42828 3.92176 3.34118 5.27161.91413-1.39148 2.385-3.673 3.37336-5.41907 1.451-2.63171 3.1228-5.88525 3.1228-7.61139a6.39982 6.39982 0 0 0 -6.48285-6.13287zm.00183 8.98285a3 3 0 1 1 3-3 3 3 0 0 1 -3 3z" fill="#85A9CF"/>
</svg>